<?xml version="1.0" encoding="UTF-8" standalone="no"?>
<!-- Created with Inkscape (http://www.inkscape.org/) -->

<svg
   xmlns:dc="http://purl.org/dc/elements/1.1/"
   xmlns:cc="http://creativecommons.org/ns#"
   xmlns:rdf="http://www.w3.org/1999/02/22-rdf-syntax-ns#"
   xmlns:svg="http://www.w3.org/2000/svg"
   xmlns="http://www.w3.org/2000/svg"
   xmlns:sodipodi="http://sodipodi.sourceforge.net/DTD/sodipodi-0.dtd"
   xmlns:inkscape="http://www.inkscape.org/namespaces/inkscape"
   id="svg2"
   version="1.1"
   inkscape:version="0.91 r13725"
   xml:space="preserve"
   width="223.68062"
   height="262.36703"
   viewBox="0 0 223.68062 262.36703"
   sodipodi:docname="cdiag3.svg"><metadata
     id="metadata8"><rdf:RDF><cc:Work
         rdf:about=""><dc:format>image/svg+xml</dc:format><dc:type
           rdf:resource="http://purl.org/dc/dcmitype/StillImage" /><dc:title></dc:title></cc:Work></rdf:RDF></metadata><defs
     id="defs6" /><sodipodi:namedview
     pagecolor="#ffffff"
     bordercolor="#666666"
     borderopacity="1"
     objecttolerance="10"
     gridtolerance="10"
     guidetolerance="10"
     inkscape:pageopacity="0"
     inkscape:pageshadow="2"
     inkscape:window-width="1611"
     inkscape:window-height="1031"
     id="namedview4"
     showgrid="false"
     fit-margin-top="0"
     fit-margin-left="0"
     fit-margin-right="0"
     fit-margin-bottom="0"
     inkscape:zoom="1.4924901"
     inkscape:cx="111.41096"
     inkscape:cy="114.36255"
     inkscape:window-x="0"
     inkscape:window-y="29"
     inkscape:window-maximized="0"
     inkscape:current-layer="g10" /><g
     id="g10"
     inkscape:groupmode="layer"
     inkscape:label="cdiag3"
     transform="matrix(1.25,0,0,-1.25,-77.659693,242.8125)"><path
       d="m 134,178 c 0,-0.884 -0.716,-1.6 -1.6,-1.6 -0.884,0 -1.6,0.716 -1.6,1.6 0,0.884 0.716,1.6 1.6,1.6 0.884,0 1.6,-0.716 1.6,-1.6"
       style="fill:#0000ff;fill-opacity:1;fill-rule:nonzero;stroke:none"
       id="path34"
       inkscape:connector-curvature="0" /><path
       d="m 132.4,104.4 0,73.6"
       style="fill:none;stroke:#ff0000;stroke-width:0.5;stroke-linecap:butt;stroke-linejoin:round;stroke-miterlimit:10;stroke-dasharray:none;stroke-opacity:1"
       id="path52"
       inkscape:connector-curvature="0" /><path
       d="M 75.303814,17.985593 132.4,104.4"
       style="fill:none;stroke:#ff0000;stroke-width:0.5;stroke-linecap:butt;stroke-linejoin:round;stroke-miterlimit:10;stroke-dasharray:none;stroke-opacity:1"
       id="path54"
       inkscape:connector-curvature="0"
       sodipodi:nodetypes="cc" /><path
       d="M 183.07203,17.985593 132.4,104.4"
       style="fill:none;stroke:#ff0000;stroke-width:0.5;stroke-linecap:butt;stroke-linejoin:round;stroke-miterlimit:10;stroke-dasharray:none;stroke-opacity:1"
       id="path56"
       inkscape:connector-curvature="0"
       sodipodi:nodetypes="cc" /><path
       d="m 134,178 c 0,-0.884 -0.716,-1.6 -1.6,-1.6 -0.884,0 -1.6,0.716 -1.6,1.6 0,0.884 0.716,1.6 1.6,1.6 0.884,0 1.6,-0.716 1.6,-1.6"
       style="fill:#0000ff;fill-opacity:1;fill-rule:nonzero;stroke:none"
       id="path68"
       inkscape:connector-curvature="0" /><path
       d="m 134,178 c 0,-0.884 -0.716,-1.6 -1.6,-1.6 -0.884,0 -1.6,0.716 -1.6,1.6 0,0.884 0.716,1.6 1.6,1.6 0.884,0 1.6,-0.716 1.6,-1.6"
       style="fill:#ffffff;fill-opacity:1;fill-rule:nonzero;stroke:none"
       id="path96"
       inkscape:connector-curvature="0" /><path
       d="m 171.6,178 c 0,-8.836 -7.164,-16 -16,-16 -8.836,0 -16,7.164 -16,16 0,8.836 7.164,16 16,16 8.836,0 16,-7.164 16,-16"
       style="fill:none;stroke:#ff0000;stroke-width:0.5;stroke-linecap:butt;stroke-linejoin:round;stroke-miterlimit:10;stroke-dasharray:none;stroke-opacity:1"
       id="path98"
       inkscape:connector-curvature="0" /><path
       d="m 148.4,178 c 0,-8.836 -7.164,-16 -16,-16 -8.836,0 -16,7.164 -16,16 0,8.836 7.164,16 16,16 8.836,0 16,-7.164 16,-16"
       style="fill:#ffffff;fill-opacity:1;fill-rule:nonzero;stroke:none"
       id="path100"
       inkscape:connector-curvature="0" /><path
       d="m 148.4,178 c 0,-8.836 -7.164,-16 -16,-16 -8.836,0 -16,7.164 -16,16 0,8.836 7.164,16 16,16 8.836,0 16,-7.164 16,-16"
       style="fill:none;stroke:#000000;stroke-width:0.5;stroke-linecap:butt;stroke-linejoin:round;stroke-miterlimit:10;stroke-dasharray:none;stroke-opacity:1"
       id="path102"
       inkscape:connector-curvature="0" /><g
       id="g104"
       transform="translate(-158,-298)"><text
         transform="matrix(1,0,0,-1,289.6,472)"
         style="font-variant:normal;font-weight:normal;font-size:10px;font-family:Helvetica;-inkscape-font-specification:Helvetica;writing-mode:lr-tb;fill:#000000;fill-opacity:1;fill-rule:nonzero;stroke:none"
         id="text106"><tspan
           x="0"
           y="0"
           id="tspan108">0</tspan></text>
</g><path
       d="m 171.6,170.8 17.6,0 0,13.6 -17.6,0 0,-13.6 z"
       style="fill:#e6e6e6;fill-opacity:1;fill-rule:evenodd;stroke:none"
       id="path110"
       inkscape:connector-curvature="0" /><g
       id="g112"
       transform="translate(-158,-298)"><text
         transform="matrix(1,0,0,-1,331.2,472)"
         style="font-variant:normal;font-weight:normal;font-size:10px;font-family:Helvetica;-inkscape-font-specification:Helvetica;writing-mode:lr-tb;fill:#ff0000;fill-opacity:1;fill-rule:nonzero;stroke:none"
         id="text114"><tspan
           x="0 5.5599999"
           y="0"
           sodipodi:role="line"
           id="tspan116">9:</tspan></text>
</g><g
       id="g118"
       transform="translate(-158,-298)"><text
         transform="matrix(1,0,0,-1,339.2,472)"
         style="font-variant:normal;font-weight:normal;font-size:10px;font-family:Helvetica;-inkscape-font-specification:Helvetica;writing-mode:lr-tb;fill:#0000ff;fill-opacity:1;fill-rule:nonzero;stroke:none"
         id="text120"><tspan
           x="0"
           y="0"
           id="tspan122">G</tspan></text>
</g><g
       id="g5387"><path
         inkscape:connector-curvature="0"
         id="path36"
         style="fill:#0000ff;fill-opacity:1;fill-rule:nonzero;stroke:none"
         d="m 134,104.4 c 0,-0.884 -0.716,-1.6 -1.6,-1.6 -0.884,0 -1.6,0.716 -1.6,1.6 0,0.884 0.716,1.6 1.6,1.6 0.884,0 1.6,-0.716 1.6,-1.6" /><path
         inkscape:connector-curvature="0"
         id="path70"
         style="fill:#0000ff;fill-opacity:1;fill-rule:nonzero;stroke:none"
         d="m 134,104.4 c 0,-0.884 -0.716,-1.6 -1.6,-1.6 -0.884,0 -1.6,0.716 -1.6,1.6 0,0.884 0.716,1.6 1.6,1.6 0.884,0 1.6,-0.716 1.6,-1.6" /><path
         inkscape:connector-curvature="0"
         id="path124"
         style="fill:#ffffff;fill-opacity:1;fill-rule:nonzero;stroke:none"
         d="m 148.4,104.4 c 0,-8.836 -7.164,-16 -16,-16 -8.836,0 -16,7.164 -16,16 0,8.836 7.164,16 16,16 8.836,0 16,-7.164 16,-16" /><path
         inkscape:connector-curvature="0"
         id="path126"
         style="fill:none;stroke:#000000;stroke-width:0.5;stroke-linecap:butt;stroke-linejoin:round;stroke-miterlimit:10;stroke-dasharray:none;stroke-opacity:1"
         d="m 148.4,104.4 c 0,-8.836 -7.164,-16 -16,-16 -8.836,0 -16,7.164 -16,16 0,8.836 7.164,16 16,16 8.836,0 16,-7.164 16,-16" /><g
         transform="translate(-159.445,-298)"
         id="g128"><text
           id="text130"
           style="font-variant:normal;font-weight:normal;font-size:10px;font-family:Helvetica;-inkscape-font-specification:Helvetica;writing-mode:lr-tb;fill:#000000;fill-opacity:1;fill-rule:nonzero;stroke:none"
           transform="matrix(1,0,0,-1,289.6,398.4)"><tspan
             id="tspan132"
             y="0"
             x="0">1</tspan></text>
</g></g><path
       d="m 133.2,134 17.6,0 0,13.6 -17.6,0 0,-13.6 z"
       style="fill:#e6e6e6;fill-opacity:1;fill-rule:evenodd;stroke:none"
       id="path134"
       inkscape:connector-curvature="0" /><g
       id="g136"
       transform="translate(-158,-298)"><text
         transform="matrix(1,0,0,-1,292.8,435.2)"
         style="font-variant:normal;font-weight:normal;font-size:10px;font-family:Helvetica;-inkscape-font-specification:Helvetica;writing-mode:lr-tb;fill:#ff0000;fill-opacity:1;fill-rule:nonzero;stroke:none"
         id="text138"><tspan
           x="0 5.5599999"
           y="0"
           sodipodi:role="line"
           id="tspan140">1:</tspan></text>
</g><g
       id="g142"
       transform="translate(-158,-298)"><text
         transform="matrix(1,0,0,-1,300.8,435.2)"
         style="font-variant:normal;font-weight:normal;font-size:10px;font-family:Helvetica;-inkscape-font-specification:Helvetica;writing-mode:lr-tb;fill:#0000ff;fill-opacity:1;fill-rule:nonzero;stroke:none"
         id="text144"><tspan
           x="0"
           y="0"
           id="tspan146">C</tspan></text>
</g><g
       id="g5378"
       transform="translate(3.7682203,-4.497458)"><path
         inkscape:connector-curvature="0"
         id="path160"
         style="fill:#e6e6e6;fill-opacity:1;fill-rule:evenodd;stroke:none"
         d="m 75.6,60.4 15.2,0 0,13.6 -15.2,0 0,-13.6 z" /><g
         transform="translate(-158,-298)"
         id="g162"><text
           id="text164"
           style="font-variant:normal;font-weight:normal;font-size:10px;font-family:Helvetica;-inkscape-font-specification:Helvetica;writing-mode:lr-tb;fill:#ff0000;fill-opacity:1;fill-rule:nonzero;stroke:none"
           transform="matrix(1,0,0,-1,235.2,361.6)"><tspan
             id="tspan166"
             sodipodi:role="line"
             y="0"
             x="0 5.5599999">7:</tspan></text>
</g><g
         transform="translate(-158,-298)"
         id="g168"><text
           id="text170"
           style="font-variant:normal;font-weight:normal;font-size:10px;font-family:Helvetica;-inkscape-font-specification:Helvetica;writing-mode:lr-tb;fill:#0000ff;fill-opacity:1;fill-rule:nonzero;stroke:none"
           transform="matrix(1,0,0,-1,243.2,361.6)"><tspan
             id="tspan172"
             y="0"
             x="0">J</tspan></text>
</g></g><g
       id="g5369"
       transform="translate(-26.736441,-4.497458)"><path
         inkscape:connector-curvature="0"
         id="path242"
         style="fill:#e6e6e6;fill-opacity:1;fill-rule:evenodd;stroke:none"
         d="m 190.8,60.4 16,0 0,13.6 -16,0 0,-13.6 z" /><g
         transform="translate(-158,-298)"
         id="g244"><text
           id="text246"
           style="font-variant:normal;font-weight:normal;font-size:10px;font-family:Helvetica;-inkscape-font-specification:Helvetica;writing-mode:lr-tb;fill:#ff0000;fill-opacity:1;fill-rule:nonzero;stroke:none"
           transform="matrix(1,0,0,-1,350.4,361.6)"><tspan
             id="tspan248"
             sodipodi:role="line"
             y="0"
             x="0 5.5599999">4:</tspan></text>
</g><g
         transform="translate(-158,-298)"
         id="g250"><text
           id="text252"
           style="font-variant:normal;font-weight:normal;font-size:10px;font-family:Helvetica;-inkscape-font-specification:Helvetica;writing-mode:lr-tb;fill:#0000ff;fill-opacity:1;fill-rule:nonzero;stroke:none"
           transform="matrix(1,0,0,-1,358.4,361.6)"><tspan
             id="tspan254"
             y="0"
             x="0">F</tspan></text>
</g></g><g
       id="g5331"
       transform="translate(61.177754,-15.64364)"><path
         inkscape:connector-curvature="0"
         id="path38"
         style="fill:#0000ff;fill-opacity:1;fill-rule:nonzero;stroke:none"
         d="m 18.8,30.8 c 0,-0.884 -0.716,-1.6 -1.6,-1.6 -0.884,0 -1.6,0.716 -1.6,1.6 0,0.884 0.716,1.6 1.6,1.6 0.884,0 1.6,-0.716 1.6,-1.6" /><path
         inkscape:connector-curvature="0"
         id="path72"
         style="fill:#0000ff;fill-opacity:1;fill-rule:nonzero;stroke:none"
         d="m 18.8,30.8 c 0,-0.884 -0.716,-1.6 -1.6,-1.6 -0.884,0 -1.6,0.716 -1.6,1.6 0,0.884 0.716,1.6 1.6,1.6 0.884,0 1.6,-0.716 1.6,-1.6" /><path
         inkscape:connector-curvature="0"
         id="path148"
         style="fill:none;stroke:#ff0000;stroke-width:0.5;stroke-linecap:butt;stroke-linejoin:round;stroke-miterlimit:10;stroke-dasharray:none;stroke-opacity:1"
         d="m 56.4,30.8 c 0,-8.836 -7.164,-16 -16,-16 -8.836,0 -16,7.164 -16,16 0,8.836 7.164,16 16,16 8.836,0 16,-7.164 16,-16" /><path
         inkscape:connector-curvature="0"
         id="path150"
         style="fill:#ffffff;fill-opacity:1;fill-rule:nonzero;stroke:none"
         d="m 33.2,30.8 c 0,-8.836 -7.164,-16 -16,-16 -8.836,0 -16,7.164 -16,16 0,8.836 7.164,16 16,16 8.836,0 16,-7.164 16,-16" /><path
         inkscape:connector-curvature="0"
         id="path152"
         style="fill:none;stroke:#000000;stroke-width:0.5;stroke-linecap:butt;stroke-linejoin:round;stroke-miterlimit:10;stroke-dasharray:none;stroke-opacity:1"
         d="m 33.2,30.8 c 0,-8.836 -7.164,-16 -16,-16 -8.836,0 -16,7.164 -16,16 0,8.836 7.164,16 16,16 8.836,0 16,-7.164 16,-16" /><g
         transform="translate(-158,-298)"
         id="g154"><text
           id="text156"
           style="font-variant:normal;font-weight:normal;font-size:10px;font-family:Helvetica;-inkscape-font-specification:Helvetica;writing-mode:lr-tb;fill:#000000;fill-opacity:1;fill-rule:nonzero;stroke:none"
           transform="matrix(1,0,0,-1,173.6,324.8)"><tspan
             id="tspan158"
             y="0"
             x="0">2</tspan></text>
</g><path
         inkscape:connector-curvature="0"
         id="path174"
         style="fill:#e6e6e6;fill-opacity:1;fill-rule:evenodd;stroke:none"
         d="m 56.4,41.2 16.8,0 0,13.6 -16.8,0 0,-13.6 z" /><g
         transform="translate(-158,-298)"
         id="g176"><text
           id="text178"
           style="font-variant:normal;font-weight:normal;font-size:10px;font-family:Helvetica;-inkscape-font-specification:Helvetica;writing-mode:lr-tb;fill:#ff0000;fill-opacity:1;fill-rule:nonzero;stroke:none"
           transform="matrix(1,0,0,-1,216,342.4)"><tspan
             id="tspan180"
             sodipodi:role="line"
             y="0"
             x="0 5.5599999">5:</tspan></text>
</g><g
         transform="translate(-158,-298)"
         id="g182"><text
           id="text184"
           style="font-variant:normal;font-weight:normal;font-size:10px;font-family:Helvetica;-inkscape-font-specification:Helvetica;writing-mode:lr-tb;fill:#0000ff;fill-opacity:1;fill-rule:nonzero;stroke:none"
           transform="matrix(1,0,0,-1,224,342.4)"><tspan
             id="tspan186"
             y="0"
             x="0">B</tspan></text>
</g><path
         inkscape:connector-curvature="0"
         id="path188"
         style="fill:#e6e6e6;fill-opacity:1;fill-rule:evenodd;stroke:none"
         d="m 56.4,30 17.6,0 0,13.6 -17.6,0 0,-13.6 z" /><g
         transform="translate(-158,-298)"
         id="g190"><text
           id="text192"
           style="font-variant:normal;font-weight:normal;font-size:10px;font-family:Helvetica;-inkscape-font-specification:Helvetica;writing-mode:lr-tb;fill:#ff0000;fill-opacity:1;fill-rule:nonzero;stroke:none"
           transform="matrix(1,0,0,-1,216,331.2)"><tspan
             id="tspan194"
             sodipodi:role="line"
             y="0"
             x="0 5.5599999">7:</tspan></text>
</g><g
         transform="translate(-158,-298)"
         id="g196"><text
           id="text198"
           style="font-variant:normal;font-weight:normal;font-size:10px;font-family:Helvetica;-inkscape-font-specification:Helvetica;writing-mode:lr-tb;fill:#0000ff;fill-opacity:1;fill-rule:nonzero;stroke:none"
           transform="matrix(1,0,0,-1,224,331.2)"><tspan
             id="tspan200"
             y="0"
             x="0">D</tspan></text>
</g><path
         inkscape:connector-curvature="0"
         id="path202"
         style="fill:#e6e6e6;fill-opacity:1;fill-rule:evenodd;stroke:none"
         d="m 56.4,18 15.2,0 0,13.6 -15.2,0 0,-13.6 z" /><g
         transform="translate(-158,-298)"
         id="g204"><text
           id="text206"
           style="font-variant:normal;font-weight:normal;font-size:10px;font-family:Helvetica;-inkscape-font-specification:Helvetica;writing-mode:lr-tb;fill:#ff0000;fill-opacity:1;fill-rule:nonzero;stroke:none"
           transform="matrix(1,0,0,-1,216,319.2)"><tspan
             id="tspan208"
             sodipodi:role="line"
             y="0"
             x="0 5.5599999">8:</tspan></text>
</g><g
         transform="translate(-158,-298)"
         id="g210"><text
           id="text212"
           style="font-variant:normal;font-weight:normal;font-size:10px;font-family:Helvetica;-inkscape-font-specification:Helvetica;writing-mode:lr-tb;fill:#0000ff;fill-opacity:1;fill-rule:nonzero;stroke:none"
           transform="matrix(1,0,0,-1,224,319.2)"><tspan
             id="tspan214"
             y="0"
             x="0">J</tspan></text>
</g><path
         inkscape:connector-curvature="0"
         id="path216"
         style="fill:#e6e6e6;fill-opacity:1;fill-rule:evenodd;stroke:none"
         d="m 56.4,6 16.8,0 0,13.6 -16.8,0 0,-13.6 z" /><g
         transform="translate(-158,-298)"
         id="g218"><text
           id="text220"
           style="font-variant:normal;font-weight:normal;font-size:10px;font-family:Helvetica;-inkscape-font-specification:Helvetica;writing-mode:lr-tb;fill:#ff0000;fill-opacity:1;fill-rule:nonzero;stroke:none"
           transform="matrix(1,0,0,-1,216,307.2)"><tspan
             id="tspan222"
             sodipodi:role="line"
             y="0"
             x="0 5.5599999">9:</tspan></text>
</g><g
         transform="translate(-158,-298)"
         id="g224"><text
           id="text226"
           style="font-variant:normal;font-weight:normal;font-size:10px;font-family:Helvetica;-inkscape-font-specification:Helvetica;writing-mode:lr-tb;fill:#0000ff;fill-opacity:1;fill-rule:nonzero;stroke:none"
           transform="matrix(1,0,0,-1,224,307.2)"><tspan
             id="tspan228"
             y="0"
             x="0">A</tspan></text>
</g></g><g
       id="g5286"
       transform="translate(-63.327754,-16.04364)"><path
         inkscape:connector-curvature="0"
         id="path40"
         style="fill:#0000ff;fill-opacity:1;fill-rule:nonzero;stroke:none"
         d="m 249.2,30.8 c 0,-0.884 -0.716,-1.6 -1.6,-1.6 -0.884,0 -1.6,0.716 -1.6,1.6 0,0.884 0.716,1.6 1.6,1.6 0.884,0 1.6,-0.716 1.6,-1.6" /><path
         inkscape:connector-curvature="0"
         id="path74"
         style="fill:#0000ff;fill-opacity:1;fill-rule:nonzero;stroke:none"
         d="m 249.2,30.8 c 0,-0.884 -0.716,-1.6 -1.6,-1.6 -0.884,0 -1.6,0.716 -1.6,1.6 0,0.884 0.716,1.6 1.6,1.6 0.884,0 1.6,-0.716 1.6,-1.6" /><path
         inkscape:connector-curvature="0"
         id="path230"
         style="fill:none;stroke:#ff0000;stroke-width:0.5;stroke-linecap:butt;stroke-linejoin:round;stroke-miterlimit:10;stroke-dasharray:none;stroke-opacity:1"
         d="m 286.8,30.8 c 0,-8.836 -7.164,-16 -16,-16 -8.836,0 -16,7.164 -16,16 0,8.836 7.164,16 16,16 8.836,0 16,-7.164 16,-16" /><path
         inkscape:connector-curvature="0"
         id="path232"
         style="fill:#ffffff;fill-opacity:1;fill-rule:nonzero;stroke:none"
         d="m 263.6,30.8 c 0,-8.836 -7.164,-16 -16,-16 -8.836,0 -16,7.164 -16,16 0,8.836 7.164,16 16,16 8.836,0 16,-7.164 16,-16" /><path
         inkscape:connector-curvature="0"
         id="path234"
         style="fill:none;stroke:#000000;stroke-width:0.5;stroke-linecap:butt;stroke-linejoin:round;stroke-miterlimit:10;stroke-dasharray:none;stroke-opacity:1"
         d="m 263.6,30.8 c 0,-8.836 -7.164,-16 -16,-16 -8.836,0 -16,7.164 -16,16 0,8.836 7.164,16 16,16 8.836,0 16,-7.164 16,-16" /><g
         transform="translate(-158,-298)"
         id="g236"><text
           id="text238"
           style="font-variant:normal;font-weight:normal;font-size:10px;font-family:Helvetica;-inkscape-font-specification:Helvetica;writing-mode:lr-tb;fill:#000000;fill-opacity:1;fill-rule:nonzero;stroke:none"
           transform="matrix(1,0,0,-1,404.8,324.8)"><tspan
             id="tspan240"
             y="0"
             x="0">3</tspan></text>
</g><path
         inkscape:connector-curvature="0"
         id="path256"
         style="fill:#e6e6e6;fill-opacity:1;fill-rule:evenodd;stroke:none"
         d="m 286.8,47.6 17.6,0 0,13.6 -17.6,0 0,-13.6 z" /><g
         transform="translate(-158,-298)"
         id="g258"><text
           id="text260"
           style="font-variant:normal;font-weight:normal;font-size:10px;font-family:Helvetica;-inkscape-font-specification:Helvetica;writing-mode:lr-tb;fill:#ff0000;fill-opacity:1;fill-rule:nonzero;stroke:none"
           transform="matrix(1,0,0,-1,446.4,348.8)"><tspan
             id="tspan262"
             sodipodi:role="line"
             y="0"
             x="0 5.5599999">5:</tspan></text>
</g><g
         transform="translate(-158,-298)"
         id="g264"><text
           id="text266"
           style="font-variant:normal;font-weight:normal;font-size:10px;font-family:Helvetica;-inkscape-font-specification:Helvetica;writing-mode:lr-tb;fill:#0000ff;fill-opacity:1;fill-rule:nonzero;stroke:none"
           transform="matrix(1,0,0,-1,454.4,348.8)"><tspan
             id="tspan268"
             y="0"
             x="0">G</tspan></text>
</g><path
         inkscape:connector-curvature="0"
         id="path270"
         style="fill:#e6e6e6;fill-opacity:1;fill-rule:evenodd;stroke:none"
         d="m 286.8,35.6 17.6,0 0,13.6 -17.6,0 0,-13.6 z" /><g
         transform="translate(-158,-298)"
         id="g272"><text
           id="text274"
           style="font-variant:normal;font-weight:normal;font-size:10px;font-family:Helvetica;-inkscape-font-specification:Helvetica;writing-mode:lr-tb;fill:#ff0000;fill-opacity:1;fill-rule:nonzero;stroke:none"
           transform="matrix(1,0,0,-1,446.4,336.8)"><tspan
             id="tspan276"
             sodipodi:role="line"
             y="0"
             x="0 5.5599999">7:</tspan></text>
</g><g
         transform="translate(-158,-298)"
         id="g278"><text
           id="text280"
           style="font-variant:normal;font-weight:normal;font-size:10px;font-family:Helvetica;-inkscape-font-specification:Helvetica;writing-mode:lr-tb;fill:#0000ff;fill-opacity:1;fill-rule:nonzero;stroke:none"
           transform="matrix(1,0,0,-1,454.4,336.8)"><tspan
             id="tspan282"
             y="0"
             x="0">H</tspan></text>
</g><path
         inkscape:connector-curvature="0"
         id="path284"
         style="fill:#e6e6e6;fill-opacity:1;fill-rule:evenodd;stroke:none"
         d="m 286.8,23.6 17.6,0 0,13.6 -17.6,0 0,-13.6 z" /><g
         transform="translate(-158,-298)"
         id="g286"><text
           id="text288"
           style="font-variant:normal;font-weight:normal;font-size:10px;font-family:Helvetica;-inkscape-font-specification:Helvetica;writing-mode:lr-tb;fill:#ff0000;fill-opacity:1;fill-rule:nonzero;stroke:none"
           transform="matrix(1,0,0,-1,446.4,324.8)"><tspan
             id="tspan290"
             sodipodi:role="line"
             y="0"
             x="0 5.5599999">8:</tspan></text>
</g><g
         transform="translate(-158,-298)"
         id="g292"><text
           id="text294"
           style="font-variant:normal;font-weight:normal;font-size:10px;font-family:Helvetica;-inkscape-font-specification:Helvetica;writing-mode:lr-tb;fill:#0000ff;fill-opacity:1;fill-rule:nonzero;stroke:none"
           transform="matrix(1,0,0,-1,454.4,324.8)"><tspan
             id="tspan296"
             y="0"
             x="0">D</tspan></text>
</g><path
         inkscape:connector-curvature="0"
         id="path298"
         style="fill:#e6e6e6;fill-opacity:1;fill-rule:evenodd;stroke:none"
         d="m 286.8,12.4 16.8,0 0,13.6 -16.8,0 0,-13.6 z" /><g
         transform="translate(-158,-298)"
         id="g300"><text
           id="text302"
           style="font-variant:normal;font-weight:normal;font-size:10px;font-family:Helvetica;-inkscape-font-specification:Helvetica;writing-mode:lr-tb;fill:#ff0000;fill-opacity:1;fill-rule:nonzero;stroke:none"
           transform="matrix(1,0,0,-1,446.4,313.6)"><tspan
             id="tspan304"
             sodipodi:role="line"
             y="0"
             x="0 5.5599999">9:</tspan></text>
</g><g
         transform="translate(-158,-298)"
         id="g306"><text
           id="text308"
           style="font-variant:normal;font-weight:normal;font-size:10px;font-family:Helvetica;-inkscape-font-specification:Helvetica;writing-mode:lr-tb;fill:#0000ff;fill-opacity:1;fill-rule:nonzero;stroke:none"
           transform="matrix(1,0,0,-1,454.4,313.6)"><tspan
             id="tspan310"
             y="0"
             x="0">A</tspan></text>
</g><path
         inkscape:connector-curvature="0"
         id="path312"
         style="fill:#e6e6e6;fill-opacity:1;fill-rule:evenodd;stroke:none"
         d="m 286.8,0.4 16.8,0 0,13.6 -16.8,0 0,-13.6 z" /><g
         transform="translate(-158,-298)"
         id="g314"><text
           id="text316"
           style="font-variant:normal;font-weight:normal;font-size:10px;font-family:Helvetica;-inkscape-font-specification:Helvetica;writing-mode:lr-tb;fill:#ff0000;fill-opacity:1;fill-rule:nonzero;stroke:none"
           transform="matrix(1,0,0,-1,446.4,301.6)"><tspan
             id="tspan318"
             sodipodi:role="line"
             y="0"
             x="0 5.5599999">9:</tspan></text>
</g><g
         transform="translate(-158,-298)"
         id="g320"><text
           id="text322"
           style="font-variant:normal;font-weight:normal;font-size:10px;font-family:Helvetica;-inkscape-font-specification:Helvetica;writing-mode:lr-tb;fill:#0000ff;fill-opacity:1;fill-rule:nonzero;stroke:none"
           transform="matrix(1,0,0,-1,454.4,301.6)"><tspan
             id="tspan324"
             y="0"
             x="0">A</tspan></text>
</g></g></g></svg>