<?xml version="1.0" encoding="UTF-8" standalone="no"?>
<!-- Created with Inkscape (http://www.inkscape.org/) -->

<svg
   xmlns:dc="http://purl.org/dc/elements/1.1/"
   xmlns:cc="http://creativecommons.org/ns#"
   xmlns:rdf="http://www.w3.org/1999/02/22-rdf-syntax-ns#"
   xmlns:svg="http://www.w3.org/2000/svg"
   xmlns="http://www.w3.org/2000/svg"
   xmlns:sodipodi="http://sodipodi.sourceforge.net/DTD/sodipodi-0.dtd"
   xmlns:inkscape="http://www.inkscape.org/namespaces/inkscape"
   id="svg2"
   version="1.1"
   inkscape:version="0.91 r13725"
   xml:space="preserve"
   width="805.15479"
   height="451.09244"
   viewBox="0 0 805.15478 451.09244"
   sodipodi:docname="random_block.svg"><metadata
     id="metadata8"><rdf:RDF><cc:Work
         rdf:about=""><dc:format>image/svg+xml</dc:format><dc:type
           rdf:resource="http://purl.org/dc/dcmitype/StillImage" /><dc:title></dc:title></cc:Work></rdf:RDF></metadata><defs
     id="defs6"><clipPath
       clipPathUnits="userSpaceOnUse"
       id="clipPath18"><path
         d="m 808,5640 0,-3368 4480,0 0,3368 -4480,0 z"
         id="path20"
         inkscape:connector-curvature="0" /></clipPath><clipPath
       clipPathUnits="userSpaceOnUse"
       id="clipPath28"><path
         d="m 1392,5384 0,-2744 3472,0 0,2744 -3472,0 z"
         id="path30"
         inkscape:connector-curvature="0" /></clipPath><clipPath
       clipPathUnits="userSpaceOnUse"
       id="clipPath40"><path
         d="m 808,5640 0,-3368 4480,0 0,3368 -4480,0 z"
         id="path42"
         inkscape:connector-curvature="0" /></clipPath><clipPath
       id="clipPath4601"
       clipPathUnits="userSpaceOnUse"><path
         inkscape:connector-curvature="0"
         id="path4603"
         d="m 0,1360 6120,0 0,5176 -6120,0 0,-5176 z" /></clipPath><clipPath
       id="clipPath4611"
       clipPathUnits="userSpaceOnUse"><path
         inkscape:connector-curvature="0"
         id="path4613"
         d="m 528,5520 0,-2968 5344,0 0,2968 -5344,0 z" /></clipPath><clipPath
       id="clipPath4623"
       clipPathUnits="userSpaceOnUse"><path
         inkscape:connector-curvature="0"
         id="path4625"
         d="m 0,1360 0,5176 6120,0 0,-5176 -6120,0 z" /></clipPath><clipPath
       id="clipPath5153"
       clipPathUnits="userSpaceOnUse"><path
         inkscape:connector-curvature="0"
         id="path5155"
         d="m 808,5640 0,-3368 4480,0 0,3368 -4480,0 z" /></clipPath><clipPath
       id="clipPath5163"
       clipPathUnits="userSpaceOnUse"><path
         inkscape:connector-curvature="0"
         id="path5165"
         d="m 1392,4976 0,-1928 3472,0 0,1928 -3472,0 z" /></clipPath><clipPath
       id="clipPath5175"
       clipPathUnits="userSpaceOnUse"><path
         inkscape:connector-curvature="0"
         id="path5177"
         d="m 808,5640 0,-3368 4480,0 0,3368 -4480,0 z" /></clipPath></defs><sodipodi:namedview
     pagecolor="#ffffff"
     bordercolor="#666666"
     borderopacity="1"
     objecttolerance="10"
     gridtolerance="10"
     guidetolerance="10"
     inkscape:pageopacity="0"
     inkscape:pageshadow="2"
     inkscape:window-width="1659"
     inkscape:window-height="916"
     id="namedview4"
     showgrid="false"
     fit-margin-top="0"
     fit-margin-left="0"
     fit-margin-right="0"
     fit-margin-bottom="0"
     inkscape:zoom="0.36607868"
     inkscape:cx="-487.47033"
     inkscape:cy="559.87533"
     inkscape:window-x="235"
     inkscape:window-y="46"
     inkscape:window-maximized="0"
     inkscape:current-layer="g10" /><g
     id="g10"
     inkscape:groupmode="layer"
     inkscape:label="random_block_marg"
     transform="matrix(1.25,0,0,-1.25,-404.15536,476.06103)"><g
       transform="matrix(1,0,0,-1,324.82629,379.22895)"
       id="g4385" /><g
       transform="matrix(0.990841,1,1,-0.990841,324.82629,379.22895)"
       id="g4421" /><g
       id="g4597"
       transform="matrix(0.1,0,0,0.1,87.104322,278.28644)"><g
         clip-path="url(#clipPath4601)"
         id="g4599"><path
           inkscape:connector-curvature="0"
           id="path4605"
           style="fill:none;stroke:#ffffff;stroke-width:5;stroke-linecap:butt;stroke-linejoin:round;stroke-miterlimit:10;stroke-dasharray:none;stroke-opacity:1"
           d="m 520,1928 0,4216 5352,0 0,-4216 -5352,0" /></g></g><g
       id="g5075"><g
         id="g4417"
         transform="matrix(0.86541384,-0.63771504,-0.63771509,-0.86541377,295.89985,403.68132)"><path
           d="m 251.926,77.473 -69.703,33.653 -33.65,-69.705 69.703,-33.653 33.65,69.705 z"
           style="fill:#cccccc;fill-opacity:1;fill-rule:nonzero;stroke:#000000;stroke-width:1.48837423;stroke-linecap:butt;stroke-linejoin:miter;stroke-miterlimit:4;stroke-dasharray:none;stroke-opacity:1"
           id="path4419"
           inkscape:connector-curvature="0" /></g><text
         transform="scale(1,-1)"
         sodipodi:linespacing="125%"
         id="text5063"
         y="-212.86888"
         x="420.82736"
         style="font-style:normal;font-weight:normal;font-size:32px;line-height:125%;font-family:sans-serif;letter-spacing:0px;word-spacing:0px;fill:#000000;fill-opacity:1;stroke:none;stroke-width:1px;stroke-linecap:butt;stroke-linejoin:miter;stroke-opacity:1"
         xml:space="preserve"><tspan
           y="-212.86888"
           x="420.82736"
           id="tspan5065"
           sodipodi:role="line">1</tspan></text>
</g><g
       id="g5081"
       transform="matrix(0.99991282,-0.0132045,0.0132045,0.99991282,-1.0157627,7.6800358)"><g
         transform="matrix(0.59306009,-0.89660543,-0.89660545,-0.59306001,572.95294,358.60767)"
         id="g5071"><path
           inkscape:connector-curvature="0"
           id="path5073"
           style="fill:#cccccc;fill-opacity:1;fill-rule:nonzero;stroke:#000000;stroke-width:1.48837423;stroke-linecap:butt;stroke-linejoin:miter;stroke-miterlimit:4;stroke-dasharray:none;stroke-opacity:1"
           d="m 251.926,77.473 -69.703,33.653 -33.65,-69.705 69.703,-33.653 33.65,69.705 z" /></g><text
         transform="scale(1,-1)"
         sodipodi:linespacing="125%"
         id="text5067"
         y="-131.93224"
         x="628.66241"
         style="font-style:normal;font-weight:normal;font-size:32px;line-height:125%;font-family:sans-serif;letter-spacing:0px;word-spacing:0px;fill:#000000;fill-opacity:1;stroke:none;stroke-width:1px;stroke-linecap:butt;stroke-linejoin:miter;stroke-opacity:1"
         xml:space="preserve"><tspan
           y="-131.93224"
           x="628.66241"
           id="tspan5069"
           sodipodi:role="line">2</tspan></text>
</g><g
       id="g5111"
       transform="translate(-1.6,0)"><g
         transform="matrix(0.98267746,0.18532404,-0.18532404,0.98267746,236.91603,-156.25464)"
         id="g5087"><g
           transform="matrix(0.59306009,-0.89660543,-0.89660545,-0.59306001,572.95294,358.60767)"
           id="g5089"><path
             inkscape:connector-curvature="0"
             id="path5091"
             style="fill:#cccccc;fill-opacity:1;fill-rule:nonzero;stroke:#000000;stroke-width:1.48837423;stroke-linecap:butt;stroke-linejoin:miter;stroke-miterlimit:4;stroke-dasharray:none;stroke-opacity:1"
             d="m 251.926,77.473 -69.703,33.653 -33.65,-69.705 69.703,-33.653 33.65,69.705 z" /></g></g><text
         xml:space="preserve"
         style="font-style:normal;font-weight:normal;font-size:32px;line-height:125%;font-family:sans-serif;letter-spacing:0px;word-spacing:0px;fill:#000000;fill-opacity:1;stroke:none;stroke-width:1px;stroke-linecap:butt;stroke-linejoin:miter;stroke-opacity:1"
         x="827.5014"
         y="-91.726227"
         id="text5103"
         sodipodi:linespacing="125%"
         transform="scale(1,-1)"><tspan
           sodipodi:role="line"
           id="tspan5105"
           x="827.5014"
           y="-91.726227">3</tspan></text>
</g><g
       id="g5149"
       transform="matrix(0.1,0,0,0.1,28.863649,-396.77288)"><g
         clip-path="url(#clipPath5153)"
         id="g5151"><path
           inkscape:connector-curvature="0"
           id="path5157"
           style="fill:none;stroke:#ffffff;stroke-width:5;stroke-linecap:butt;stroke-linejoin:round;stroke-miterlimit:10;stroke-dasharray:none;stroke-opacity:1"
           d="m 1384,3048 0,1936 3480,0 0,-1936 -3480,0" /></g></g><g
       id="g4554"><g
         id="g4397"
         transform="matrix(1,0,0,-1,324.82629,379.22895)"><path
           d="m 80.102,285.297 c 0,6.031 -4.891,10.918 -10.922,10.918 -6.032,0 -10.918,-4.887 -10.918,-10.918 0,-6.031 4.886,-10.922 10.918,-10.922 6.031,0 10.922,4.891 10.922,10.922 z"
           style="fill:#ffffff;fill-opacity:1;fill-rule:nonzero;stroke:#000000;stroke-width:1.60000002;stroke-linecap:butt;stroke-linejoin:miter;stroke-miterlimit:4;stroke-dasharray:none;stroke-opacity:1"
           id="path4399"
           inkscape:connector-curvature="0" /></g><g
         id="g4401"
         transform="matrix(1,0,0,-1,324.82629,379.22895)"><path
           d="m 61.309,285.297 c 0,6.031 -4.891,10.918 -10.922,10.918 -6.032,0 -10.922,-4.887 -10.922,-10.918 0,-6.031 4.89,-10.922 10.922,-10.922 6.031,0 10.922,4.891 10.922,10.922 z"
           style="fill:#ffffff;fill-opacity:1;fill-rule:nonzero;stroke:#000000;stroke-width:1.60000002;stroke-linecap:butt;stroke-linejoin:miter;stroke-miterlimit:4;stroke-dasharray:none;stroke-opacity:1"
           id="path4403"
           inkscape:connector-curvature="0" /></g><g
         id="g4405"
         transform="matrix(1,0,0,-1,324.82629,379.22895)"><path
           d="m 61.309,306.121 c 0,6.031 -4.891,10.922 -10.922,10.922 -6.032,0 -10.922,-4.891 -10.922,-10.922 0,-6.031 4.89,-10.922 10.922,-10.922 6.031,0 10.922,4.891 10.922,10.922 z"
           style="fill:#ffffff;fill-opacity:1;fill-rule:nonzero;stroke:#000000;stroke-width:1.60000002;stroke-linecap:butt;stroke-linejoin:miter;stroke-miterlimit:4;stroke-dasharray:none;stroke-opacity:1"
           id="path4407"
           inkscape:connector-curvature="0" /></g><g
         id="g4409"
         transform="matrix(1,0,0,-1,324.82629,379.22895)"><path
           d="m 80.102,306.121 c 0,6.031 -4.891,10.922 -10.922,10.922 -6.032,0 -10.918,-4.891 -10.918,-10.922 0,-6.031 4.886,-10.922 10.918,-10.922 6.031,0 10.922,4.891 10.922,10.922 z"
           style="fill:#ffffff;fill-opacity:1;fill-rule:nonzero;stroke:#000000;stroke-width:1.60000002;stroke-linecap:butt;stroke-linejoin:miter;stroke-miterlimit:4;stroke-dasharray:none;stroke-opacity:1"
           id="path4411"
           inkscape:connector-curvature="0" /></g><g
         id="g4413"
         transform="matrix(1,0,0,-1,324.82629,379.22895)"><path
           d="m 80.137,295.707 c 0,11.441 -9.114,20.715 -20.352,20.715 -11.242,0 -20.355,-9.274 -20.355,-20.715 0,-11.437 9.113,-20.711 20.355,-20.711 11.238,0 20.352,9.274 20.352,20.711 z"
           style="fill:#737373;fill-opacity:1;fill-rule:nonzero;stroke:#000000;stroke-width:1.60000002;stroke-linecap:butt;stroke-linejoin:miter;stroke-miterlimit:4;stroke-dasharray:none;stroke-opacity:1"
           id="path4415"
           inkscape:connector-curvature="0" /></g></g><g
       transform="matrix(1,0,0,-1,324.82629,379.22895)"
       id="g4389"><path
         inkscape:connector-curvature="0"
         id="path4391"
         style="fill:none;stroke:#000000;stroke-width:3.20000005;stroke-linecap:butt;stroke-linejoin:miter;stroke-miterlimit:4;stroke-dasharray:none;stroke-opacity:1"
         d="m 0.098,357.457 0,-357.344 640.92385,-0.1325425 0,357.6731225 L 0.098,357.457"
         sodipodi:nodetypes="ccccc" /></g><g
       transform="matrix(1,0,0,-1,324.82629,379.22895)"
       id="g4393" /><g
       transform="matrix(1,0,0,-1,324.82629,379.22895)"
       id="g4381" /><g
       id="g6122"
       transform="matrix(0.98267746,0.18532404,-0.18532404,0.98267746,153.36643,-86.32431)"><g
         id="g6124"
         transform="matrix(0.59306009,-0.89660543,-0.89660545,-0.59306001,572.95294,358.60767)"><path
           d="m 251.926,77.473 -69.703,33.653 -33.65,-69.705 69.703,-33.653 33.65,69.705 z"
           style="fill:#cccccc;fill-opacity:1;fill-rule:nonzero;stroke:#000000;stroke-width:1.48837423;stroke-linecap:butt;stroke-linejoin:miter;stroke-miterlimit:4;stroke-dasharray:none;stroke-opacity:1"
           id="path6126"
           inkscape:connector-curvature="0" /></g></g><text
       transform="scale(1,-1)"
       sodipodi:linespacing="125%"
       id="text6128"
       y="-161.64093"
       x="744.00647"
       style="font-style:normal;font-weight:normal;font-size:32px;line-height:125%;font-family:sans-serif;letter-spacing:0px;word-spacing:0px;fill:#000000;fill-opacity:1;stroke:none;stroke-width:1px;stroke-linecap:butt;stroke-linejoin:miter;stroke-opacity:1"
       xml:space="preserve"><tspan
         y="-161.64093"
         x="744.00647"
         id="tspan6130"
         sodipodi:role="line">4</tspan></text>
</g></svg>