<?xml version="1.0" encoding="UTF-8" standalone="no"?>
<!-- Created with Inkscape (http://www.inkscape.org/) -->

<svg
   xmlns:dc="http://purl.org/dc/elements/1.1/"
   xmlns:cc="http://creativecommons.org/ns#"
   xmlns:rdf="http://www.w3.org/1999/02/22-rdf-syntax-ns#"
   xmlns:svg="http://www.w3.org/2000/svg"
   xmlns="http://www.w3.org/2000/svg"
   xmlns:sodipodi="http://sodipodi.sourceforge.net/DTD/sodipodi-0.dtd"
   xmlns:inkscape="http://www.inkscape.org/namespaces/inkscape"
   id="svg2"
   version="1.1"
   inkscape:version="0.48.4 r9939"
   width="562.98881"
   height="322.67296"
   xml:space="preserve"
   sodipodi:docname="layer_histories.pdf"><metadata
     id="metadata8"><rdf:RDF><cc:Work
         rdf:about=""><dc:format>image/svg+xml</dc:format><dc:type
           rdf:resource="http://purl.org/dc/dcmitype/StillImage" /><dc:title></dc:title></cc:Work></rdf:RDF></metadata><defs
     id="defs6"><clipPath
       clipPathUnits="userSpaceOnUse"
       id="clipPath22"><path
         d="m 14,183.13837 105,0 0,17 -105,0 0,-17 z"
         id="path24" /></clipPath><mask
       maskUnits="userSpaceOnUse"
       x="0"
       y="0"
       width="1"
       height="1"
       id="mask26"><g
         id="g28"><g
           clip-path="url(#clipPath22)"
           id="g30"><path
             d="m 14,183.13837 105,0 0,17 -105,0 0,-17 z"
             style="fill:#000000;fill-opacity:0.99;fill-rule:nonzero;stroke:none"
             id="path32" /></g></g></mask><clipPath
       clipPathUnits="userSpaceOnUse"
       id="clipPath38"><path
         d="m 14,183.13837 105,0 0,17 -105,0 0,-17 z"
         id="path40" /></clipPath><clipPath
       clipPathUnits="userSpaceOnUse"
       id="clipPath42"><path
         d="m 14,184 105,0 0,17 -105,0 0,-17 z"
         id="path44" /></clipPath><clipPath
       clipPathUnits="userSpaceOnUse"
       id="clipPath196"><path
         d="m 11,103.13837 104,0 0,17 -104,0 0,-17 z"
         id="path198" /></clipPath><mask
       maskUnits="userSpaceOnUse"
       x="0"
       y="0"
       width="1"
       height="1"
       id="mask200"><g
         id="g202"><g
           clip-path="url(#clipPath196)"
           id="g204"><path
             d="m 11,103.13837 104,0 0,17 -104,0 0,-17 z"
             style="fill:#000000;fill-opacity:0.99;fill-rule:nonzero;stroke:none"
             id="path206" /></g></g></mask><clipPath
       clipPathUnits="userSpaceOnUse"
       id="clipPath212"><path
         d="m 11,103.13837 104,0 0,17 -104,0 0,-17 z"
         id="path214" /></clipPath><clipPath
       clipPathUnits="userSpaceOnUse"
       id="clipPath216"><path
         d="m 11,104 104,0 0,17 -104,0 0,-17 z"
         id="path218" /></clipPath><clipPath
       clipPathUnits="userSpaceOnUse"
       id="clipPath240"><path
         d="m 14,22.138367 105,0 0,17 -105,0 0,-17 z"
         id="path242" /></clipPath><mask
       maskUnits="userSpaceOnUse"
       x="0"
       y="0"
       width="1"
       height="1"
       id="mask244"><g
         id="g246"><g
           clip-path="url(#clipPath240)"
           id="g248"><path
             d="m 14,22.138367 105,0 0,17 -105,0 0,-17 z"
             style="fill:#000000;fill-opacity:0.99;fill-rule:nonzero;stroke:none"
             id="path250" /></g></g></mask><clipPath
       clipPathUnits="userSpaceOnUse"
       id="clipPath256"><path
         d="m 14,22.138367 105,0 0,17 -105,0 0,-17 z"
         id="path258" /></clipPath><clipPath
       clipPathUnits="userSpaceOnUse"
       id="clipPath260"><path
         d="m 14,23 105,0 0,17 -105,0 0,-17 z"
         id="path262" /></clipPath></defs><sodipodi:namedview
     pagecolor="#ffffff"
     bordercolor="#666666"
     borderopacity="1"
     objecttolerance="10"
     gridtolerance="10"
     guidetolerance="10"
     inkscape:pageopacity="0"
     inkscape:pageshadow="2"
     inkscape:window-width="1029"
     inkscape:window-height="690"
     id="namedview4"
     showgrid="false"
     inkscape:zoom="0.59681468"
     inkscape:cx="298.45586"
     inkscape:cy="207.5398"
     inkscape:window-x="0"
     inkscape:window-y="32"
     inkscape:window-maximized="0"
     inkscape:current-layer="g18" /><g
     id="g10"
     inkscape:groupmode="layer"
     inkscape:label="layer_histories"
     transform="matrix(1.25,0,0,-1.25,0,322.67296)"><g
       id="g12"><g
         id="g14"
         transform="matrix(1,0,0,-1,0,258.13837)"><path
           d="m 6.188,41.156 436.433,0 c 3.211,0 5.797,2.586 5.797,5.797 l 0,204.977 c 0,3.215 -2.586,5.797 -5.797,5.797 l -436.433,0 c -3.211,0 -5.797,-2.582 -5.797,-5.797 l 0,-204.977 c 0,-3.211 2.586,-5.797 5.797,-5.797 z"
           style="fill:#dfdfdf;fill-opacity:1;fill-rule:nonzero;stroke:#000000;stroke-opacity:1;stroke-width:0.8;stroke-linecap:butt;stroke-linejoin:miter;stroke-miterlimit:4;stroke-dasharray:none"
           id="path16" /></g><g
         id="g62"
         transform="matrix(1,0,0,-1,0,258.13837)"><path
           d="m 146.02,85.152 276.699,0"
           style="fill:none;stroke:#000000;stroke-opacity:1;stroke-width:0.8;stroke-linecap:butt;stroke-linejoin:miter;stroke-miterlimit:4;stroke-dasharray:none"
           id="path64" /></g><g
         id="g70"
         transform="matrix(1,0,0,-1,0,258.13837)"><path
           d="m 204.496,85.152 c 0,1.766 -1.434,3.2 -3.199,3.2 -1.77,0 -3.203,-1.434 -3.203,-3.2 0,-1.765 1.433,-3.199 3.203,-3.199 1.765,0 3.199,1.434 3.199,3.199 z"
           style="fill:#000000;fill-opacity:1;fill-rule:evenodd;stroke:#000000;stroke-opacity:1;stroke-width:0.8;stroke-linecap:butt;stroke-linejoin:miter;stroke-miterlimit:4;stroke-dasharray:none"
           id="path72" /></g><g
         id="g74"
         transform="matrix(1,0,0,-1,0,258.13837)"><path
           d="m 259.836,85.152 c 0,1.766 -1.434,3.2 -3.199,3.2 -1.77,0 -3.203,-1.434 -3.203,-3.2 0,-1.765 1.433,-3.199 3.203,-3.199 1.765,0 3.199,1.434 3.199,3.199 z"
           style="fill:#000000;fill-opacity:1;fill-rule:evenodd;stroke:#000000;stroke-opacity:1;stroke-width:0.8;stroke-linecap:butt;stroke-linejoin:miter;stroke-miterlimit:4;stroke-dasharray:none"
           id="path76" /></g><g
         id="g78"
         transform="matrix(1,0,0,-1,0,258.13837)"><path
           d="m 315.176,85.152 c 0,1.766 -1.434,3.2 -3.199,3.2 -1.77,0 -3.204,-1.434 -3.204,-3.2 0,-1.765 1.434,-3.199 3.204,-3.199 1.765,0 3.199,1.434 3.199,3.199 z"
           style="fill:#000000;fill-opacity:1;fill-rule:evenodd;stroke:#000000;stroke-opacity:1;stroke-width:0.8;stroke-linecap:butt;stroke-linejoin:miter;stroke-miterlimit:4;stroke-dasharray:none"
           id="path80" /></g><g
         id="g82"
         transform="matrix(1,0,0,-1,0,258.13837)"><path
           d="m 370.516,85.152 c 0,1.766 -1.434,3.2 -3.2,3.2 -1.765,0 -3.199,-1.434 -3.199,-3.2 0,-1.765 1.434,-3.199 3.199,-3.199 1.766,0 3.2,1.434 3.2,3.199 z"
           style="fill:#000000;fill-opacity:1;fill-rule:evenodd;stroke:#000000;stroke-opacity:1;stroke-width:0.8;stroke-linecap:butt;stroke-linejoin:miter;stroke-miterlimit:4;stroke-dasharray:none"
           id="path84" /></g><g
         id="g86"
         transform="matrix(1,0,0,-1,0,258.13837)"><path
           d="m 425.855,85.152 c 0,1.766 -1.433,3.2 -3.199,3.2 -1.765,0 -3.199,-1.434 -3.199,-3.2 0,-1.765 1.434,-3.199 3.199,-3.199 1.766,0 3.199,1.434 3.199,3.199 z"
           style="fill:#000000;fill-opacity:1;fill-rule:evenodd;stroke:#000000;stroke-opacity:1;stroke-width:0.8;stroke-linecap:butt;stroke-linejoin:miter;stroke-miterlimit:4;stroke-dasharray:none"
           id="path88" /></g><text
         transform="matrix(1,0,0,-1,137.00681,182.68329)"
         id="text90"><tspan
           style="fill:#000000;fill-opacity:1;fill-rule:nonzero;stroke:none;font-family:DejaVu Sans;font-variant:normal;font-weight:normal;font-size:25.6;writing-mode:lr;-inkscape-font-specification:DejaVuSans"
           x="0 55.4496 222.3872 277.9904"
           y="0"
           sodipodi:role="line"
           id="tspan92">1122</tspan></text>
<g
         id="g94"
         transform="matrix(1,0,0,-1,0,258.13837)"><path
           d="m 146.02,245.152 276.699,0"
           style="fill:none;stroke:#000000;stroke-opacity:1;stroke-width:0.8;stroke-linecap:butt;stroke-linejoin:miter;stroke-miterlimit:4;stroke-dasharray:none"
           id="path96" /></g><g
         id="g102"
         transform="matrix(1,0,0,-1,0,258.13837)"><path
           d="m 204.496,245.152 c 0,1.766 -1.434,3.2 -3.199,3.2 -1.77,0 -3.203,-1.434 -3.203,-3.2 0,-1.765 1.433,-3.199 3.203,-3.199 1.765,0 3.199,1.434 3.199,3.199 z"
           style="fill:#000000;fill-opacity:1;fill-rule:evenodd;stroke:#000000;stroke-opacity:1;stroke-width:0.8;stroke-linecap:butt;stroke-linejoin:miter;stroke-miterlimit:4;stroke-dasharray:none"
           id="path104" /></g><g
         id="g106"
         transform="matrix(1,0,0,-1,0,258.13837)"><path
           d="m 259.836,245.152 c 0,1.766 -1.434,3.2 -3.199,3.2 -1.77,0 -3.203,-1.434 -3.203,-3.2 0,-1.765 1.433,-3.199 3.203,-3.199 1.765,0 3.199,1.434 3.199,3.199 z"
           style="fill:#000000;fill-opacity:1;fill-rule:evenodd;stroke:#000000;stroke-opacity:1;stroke-width:0.8;stroke-linecap:butt;stroke-linejoin:miter;stroke-miterlimit:4;stroke-dasharray:none"
           id="path108" /></g><g
         id="g110"
         transform="matrix(1,0,0,-1,0,258.13837)"><path
           d="m 315.176,245.152 c 0,1.766 -1.434,3.2 -3.199,3.2 -1.77,0 -3.204,-1.434 -3.204,-3.2 0,-1.765 1.434,-3.199 3.204,-3.199 1.765,0 3.199,1.434 3.199,3.199 z"
           style="fill:#000000;fill-opacity:1;fill-rule:evenodd;stroke:#000000;stroke-opacity:1;stroke-width:0.8;stroke-linecap:butt;stroke-linejoin:miter;stroke-miterlimit:4;stroke-dasharray:none"
           id="path112" /></g><g
         id="g114"
         transform="matrix(1,0,0,-1,0,258.13837)"><path
           d="m 370.516,245.152 c 0,1.766 -1.434,3.2 -3.2,3.2 -1.765,0 -3.199,-1.434 -3.199,-3.2 0,-1.765 1.434,-3.199 3.199,-3.199 1.766,0 3.2,1.434 3.2,3.199 z"
           style="fill:#000000;fill-opacity:1;fill-rule:evenodd;stroke:#000000;stroke-opacity:1;stroke-width:0.8;stroke-linecap:butt;stroke-linejoin:miter;stroke-miterlimit:4;stroke-dasharray:none"
           id="path116" /></g><g
         id="g118"
         transform="matrix(1,0,0,-1,0,258.13837)"><path
           d="m 425.855,245.152 c 0,1.766 -1.433,3.2 -3.199,3.2 -1.765,0 -3.199,-1.434 -3.199,-3.2 0,-1.765 1.434,-3.199 3.199,-3.199 1.766,0 3.199,1.434 3.199,3.199 z"
           style="fill:#000000;fill-opacity:1;fill-rule:evenodd;stroke:#000000;stroke-opacity:1;stroke-width:0.8;stroke-linecap:butt;stroke-linejoin:miter;stroke-miterlimit:4;stroke-dasharray:none"
           id="path120" /></g><text
         transform="matrix(1,0,0,-1,359.41499,22.683289)"
         id="text122"><tspan
           style="fill:#000000;fill-opacity:1;fill-rule:nonzero;stroke:none;font-family:DejaVu Sans;font-variant:normal;font-weight:normal;font-size:25.6;writing-mode:lr;-inkscape-font-specification:DejaVuSans"
           x="0 55.6032"
           y="0"
           sodipodi:role="line"
           id="tspan124">44</tspan></text>
<g
         id="g126"
         transform="matrix(1,0,0,-1,0,258.13837)"><path
           d="m 146.02,165.32 276.699,0"
           style="fill:none;stroke:#000000;stroke-opacity:1;stroke-width:0.8;stroke-linecap:butt;stroke-linejoin:miter;stroke-miterlimit:4;stroke-dasharray:none"
           id="path128" /></g><g
         id="g134"
         transform="matrix(1,0,0,-1,0,258.13837)"><path
           d="m 204.496,165.32 c 0,1.766 -1.434,3.2 -3.199,3.2 -1.77,0 -3.203,-1.434 -3.203,-3.2 0,-1.765 1.433,-3.199 3.203,-3.199 1.765,0 3.199,1.434 3.199,3.199 z"
           style="fill:#000000;fill-opacity:1;fill-rule:evenodd;stroke:#000000;stroke-opacity:1;stroke-width:0.8;stroke-linecap:butt;stroke-linejoin:miter;stroke-miterlimit:4;stroke-dasharray:none"
           id="path136" /></g><g
         id="g138"
         transform="matrix(1,0,0,-1,0,258.13837)"><path
           d="m 259.836,165.32 c 0,1.766 -1.434,3.2 -3.199,3.2 -1.77,0 -3.203,-1.434 -3.203,-3.2 0,-1.765 1.433,-3.199 3.203,-3.199 1.765,0 3.199,1.434 3.199,3.199 z"
           style="fill:#000000;fill-opacity:1;fill-rule:evenodd;stroke:#000000;stroke-opacity:1;stroke-width:0.8;stroke-linecap:butt;stroke-linejoin:miter;stroke-miterlimit:4;stroke-dasharray:none"
           id="path140" /></g><g
         id="g142"
         transform="matrix(1,0,0,-1,0,258.13837)"><path
           d="m 315.176,165.32 c 0,1.766 -1.434,3.2 -3.199,3.2 -1.77,0 -3.204,-1.434 -3.204,-3.2 0,-1.765 1.434,-3.199 3.204,-3.199 1.765,0 3.199,1.434 3.199,3.199 z"
           style="fill:#000000;fill-opacity:1;fill-rule:evenodd;stroke:#000000;stroke-opacity:1;stroke-width:0.8;stroke-linecap:butt;stroke-linejoin:miter;stroke-miterlimit:4;stroke-dasharray:none"
           id="path144" /></g><g
         id="g146"
         transform="matrix(1,0,0,-1,0,258.13837)"><path
           d="m 370.516,165.32 c 0,1.766 -1.434,3.2 -3.2,3.2 -1.765,0 -3.199,-1.434 -3.199,-3.2 0,-1.765 1.434,-3.199 3.199,-3.199 1.766,0 3.2,1.434 3.2,3.199 z"
           style="fill:#000000;fill-opacity:1;fill-rule:evenodd;stroke:#000000;stroke-opacity:1;stroke-width:0.8;stroke-linecap:butt;stroke-linejoin:miter;stroke-miterlimit:4;stroke-dasharray:none"
           id="path148" /></g><g
         id="g150"
         transform="matrix(1,0,0,-1,0,258.13837)"><path
           d="m 425.855,165.32 c 0,1.766 -1.433,3.2 -3.199,3.2 -1.765,0 -3.199,-1.434 -3.199,-3.2 0,-1.765 1.434,-3.199 3.199,-3.199 1.766,0 3.199,1.434 3.199,3.199 z"
           style="fill:#000000;fill-opacity:1;fill-rule:evenodd;stroke:#000000;stroke-opacity:1;stroke-width:0.8;stroke-linecap:butt;stroke-linejoin:miter;stroke-miterlimit:4;stroke-dasharray:none"
           id="path152" /></g><text
         transform="matrix(1,0,0,-1,137.00681,102.51454)"
         id="text154"><tspan
           style="font-size:25.60000038px;font-variant:normal;font-weight:normal;writing-mode:lr-tb;fill:#000000;fill-opacity:1;fill-rule:nonzero;stroke:none;font-family:DejaVu Sans;-inkscape-font-specification:DejaVuSans"
           x="0 55.4496 222.38721 111.4368 165.83681"
           y="0"
           sodipodi:role="line"
           id="tspan156">11211</tspan><tspan
           style="font-size:25.60000038px;font-variant:normal;font-weight:normal;writing-mode:lr-tb;fill:#000000;fill-opacity:1;fill-rule:nonzero;stroke:none;font-family:DejaVu Sans;-inkscape-font-specification:DejaVuSans"
           x="166.40817"
           y="79.831245"
           id="tspan158">4</tspan></text>
<g
         id="g160"
         transform="matrix(1,0,0,-1,0,258.13837)"><path
           d="m 146.02,9.953 276.699,0"
           style="fill:none;stroke:#000000;stroke-opacity:1;stroke-width:0.8;stroke-linecap:butt;stroke-linejoin:miter;stroke-miterlimit:4;stroke-dasharray:none"
           id="path162" /></g><g
         id="g168"
         transform="matrix(1,0,0,-1,0,258.13837)"><path
           d="m 204.496,9.953 c 0,1.766 -1.434,3.199 -3.199,3.199 -1.77,0 -3.203,-1.433 -3.203,-3.199 0,-1.765 1.433,-3.199 3.203,-3.199 1.765,0 3.199,1.434 3.199,3.199 z"
           style="fill:#000000;fill-opacity:1;fill-rule:evenodd;stroke:#000000;stroke-opacity:1;stroke-width:0.8;stroke-linecap:butt;stroke-linejoin:miter;stroke-miterlimit:4;stroke-dasharray:none"
           id="path170" /></g><g
         id="g172"
         transform="matrix(1,0,0,-1,0,258.13837)"><path
           d="m 259.836,9.953 c 0,1.766 -1.434,3.199 -3.199,3.199 -1.77,0 -3.203,-1.433 -3.203,-3.199 0,-1.765 1.433,-3.199 3.203,-3.199 1.765,0 3.199,1.434 3.199,3.199 z"
           style="fill:#000000;fill-opacity:1;fill-rule:evenodd;stroke:#000000;stroke-opacity:1;stroke-width:0.8;stroke-linecap:butt;stroke-linejoin:miter;stroke-miterlimit:4;stroke-dasharray:none"
           id="path174" /></g><g
         id="g176"
         transform="matrix(1,0,0,-1,0,258.13837)"><path
           d="m 315.176,9.953 c 0,1.766 -1.434,3.199 -3.199,3.199 -1.77,0 -3.204,-1.433 -3.204,-3.199 0,-1.765 1.434,-3.199 3.204,-3.199 1.765,0 3.199,1.434 3.199,3.199 z"
           style="fill:#000000;fill-opacity:1;fill-rule:evenodd;stroke:#000000;stroke-opacity:1;stroke-width:0.8;stroke-linecap:butt;stroke-linejoin:miter;stroke-miterlimit:4;stroke-dasharray:none"
           id="path178" /></g><g
         id="g180"
         transform="matrix(1,0,0,-1,0,258.13837)"><path
           d="m 370.516,9.953 c 0,1.766 -1.434,3.199 -3.2,3.199 -1.765,0 -3.199,-1.433 -3.199,-3.199 0,-1.765 1.434,-3.199 3.199,-3.199 1.766,0 3.2,1.434 3.2,3.199 z"
           style="fill:#000000;fill-opacity:1;fill-rule:evenodd;stroke:#000000;stroke-opacity:1;stroke-width:0.8;stroke-linecap:butt;stroke-linejoin:miter;stroke-miterlimit:4;stroke-dasharray:none"
           id="path182" /></g><g
         id="g184"
         transform="matrix(1,0,0,-1,0,258.13837)"><path
           d="m 425.855,9.953 c 0,1.766 -1.433,3.199 -3.199,3.199 -1.765,0 -3.199,-1.433 -3.199,-3.199 0,-1.765 1.434,-3.199 3.199,-3.199 1.766,0 3.199,1.434 3.199,3.199 z"
           style="fill:#000000;fill-opacity:1;fill-rule:evenodd;stroke:#000000;stroke-opacity:1;stroke-width:0.8;stroke-linecap:butt;stroke-linejoin:miter;stroke-miterlimit:4;stroke-dasharray:none"
           id="path186" /></g><text
         transform="matrix(1,0,0,-1,112.98927,234.81024)"
         id="text188"><tspan
           style="fill:#000000;fill-opacity:1;fill-rule:nonzero;stroke:none;font-family:DejaVu Sans;font-variant:normal;font-weight:normal;font-size:32;writing-mode:lr;-inkscape-font-specification:DejaVuSans"
           x="0 317.696"
           y="0"
           sodipodi:role="line"
           id="tspan190">AB</tspan></text>
<text
         xml:space="preserve"
         style="font-size:40px;font-style:normal;font-variant:normal;font-weight:normal;font-stretch:normal;line-height:125%;letter-spacing:0px;word-spacing:0px;fill:#000000;fill-opacity:1;stroke:none;font-family:Sawasdee;-inkscape-font-specification:Sawasdee"
         x="510.64935"
         y="178.71962"
         id="text3257"
         sodipodi:linespacing="125%"
         transform="matrix(0.8,0,0,-0.8,0,258.13837)"><tspan
           sodipodi:role="line"
           id="tspan3259" /></text>
<text
         transform="matrix(0.8,0,0,-0.8,0,258.13837)"
         sodipodi:linespacing="125%"
         id="text3261"
         y="178.71962"
         x="510.64935"
         style="font-size:40px;font-style:normal;font-variant:normal;font-weight:normal;font-stretch:normal;line-height:125%;letter-spacing:0px;word-spacing:0px;fill:#000000;fill-opacity:1;stroke:none;font-family:Sawasdee;-inkscape-font-specification:Sawasdee"
         xml:space="preserve"><tspan
           id="tspan3263"
           sodipodi:role="line" /></text>
<text
         xml:space="preserve"
         style="font-size:32px;font-style:normal;font-variant:normal;font-weight:normal;font-stretch:normal;line-height:125%;letter-spacing:0px;word-spacing:0px;fill:#000000;fill-opacity:1;stroke:none;font-family:DejaVu Sans;-inkscape-font-specification:DejaVu Sans"
         x="413.76593"
         y="-102.36683"
         id="text3271"
         sodipodi:linespacing="125%"
         transform="scale(1,-1)"><tspan
           sodipodi:role="line"
           id="tspan3273"
           x="413.76593"
           y="-102.36683"
           style="font-size:25.60000038px">1</tspan></text>
<g
         id="g164"
         transform="matrix(1,0,0,-1,0,258.13837)"><path
           d="m 149.156,9.953 c 0,1.766 -1.433,3.199 -3.203,3.199 -1.765,0 -3.199,-1.433 -3.199,-3.199 0,-1.765 1.434,-3.199 3.199,-3.199 1.77,0 3.203,1.434 3.203,3.199 z"
           style="fill:#000000;fill-opacity:1;fill-rule:evenodd;stroke:#000000;stroke-opacity:1;stroke-width:0.8;stroke-linecap:butt;stroke-linejoin:miter;stroke-miterlimit:4;stroke-dasharray:none"
           id="path166" /></g><g
         id="g18"
         style="fill:#000000;fill-opacity:1;stroke:#000000;stroke-opacity:1"><g
           id="g20"
           style="fill:#000000;fill-opacity:1;stroke:#000000;stroke-opacity:1" /><text
           xml:space="preserve"
           style="font-size:32px;font-style:normal;font-variant:normal;font-weight:normal;font-stretch:normal;line-height:125%;letter-spacing:0px;word-spacing:0px;fill:#000000;fill-opacity:1;stroke:none;font-family:Arial;-inkscape-font-specification:Arial"
           x="7.5235972"
           y="-168.0753"
           id="text3890"
           sodipodi:linespacing="125%"
           transform="scale(1,-1)"><tspan
             sodipodi:role="line"
             id="tspan3892"
             x="7.5235972"
             y="-168.0753"
             style="font-size:25.60000038px;font-style:normal;font-variant:normal;font-weight:normal;font-stretch:normal;font-family:DejaVu Sans;-inkscape-font-specification:DejaVu Sans">Frame 1.</tspan></text>
<flowRoot
           xml:space="preserve"
           id="flowRoot3894"
           style="fill:black;stroke:none;stroke-opacity:1;stroke-width:1px;stroke-linejoin:miter;stroke-linecap:butt;fill-opacity:1;font-family:DejaVu Sans;font-style:normal;font-weight:normal;font-size:40px;line-height:125%;letter-spacing:0px;word-spacing:0px;-inkscape-font-specification:DejaVu Sans;font-stretch:normal;font-variant:normal"><flowRegion
             id="flowRegion3896"><rect
               id="rect3898"
               width="299.9256"
               height="444.02393"
               x="-97.182594"
               y="31.125187" /></flowRegion><flowPara
             id="flowPara3900"></flowPara></flowRoot><text
           transform="scale(1,-1)"
           sodipodi:linespacing="125%"
           id="text3902"
           y="-88.875267"
           x="7.5235972"
           style="font-size:32px;font-style:normal;font-variant:normal;font-weight:normal;font-stretch:normal;line-height:125%;letter-spacing:0px;word-spacing:0px;fill:#000000;fill-opacity:1;stroke:none;font-family:Arial;-inkscape-font-specification:Arial"
           xml:space="preserve"><tspan
             style="font-size:25.60000038px;font-style:normal;font-variant:normal;font-weight:normal;font-stretch:normal;font-family:DejaVu Sans;-inkscape-font-specification:DejaVu Sans"
             y="-88.875267"
             x="7.5235972"
             id="tspan3904"
             sodipodi:role="line">Frame 2.</tspan></text>
<text
           xml:space="preserve"
           style="font-size:32px;font-style:normal;font-variant:normal;font-weight:normal;font-stretch:normal;line-height:125%;letter-spacing:0px;word-spacing:0px;fill:#000000;fill-opacity:1;stroke:none;font-family:Arial;-inkscape-font-specification:Arial"
           x="7.5235972"
           y="-9.6752548"
           id="text3906"
           sodipodi:linespacing="125%"
           transform="scale(1,-1)"><tspan
             sodipodi:role="line"
             id="tspan3908"
             x="7.5235972"
             y="-9.6752548"
             style="font-size:25.60000038px;font-style:normal;font-variant:normal;font-weight:normal;font-stretch:normal;font-family:DejaVu Sans;-inkscape-font-specification:DejaVu Sans">Frame 3.</tspan></text>
</g></g></g></svg>